<mxfile host="app.diagrams.net" modified="2024-04-24T12:18:10.648Z" agent="Mozilla/5.0 (Windows NT 10.0; Win64; x64) AppleWebKit/537.36 (KHTML, like Gecko) Chrome/124.0.0.0 Safari/537.36" etag="Lrlh3CRpj4TX9br5uLr4" version="24.2.9" type="device">
  <diagram name="Page-1" id="UrvOXE5QxViJXrFkEHdj">
    <mxGraphModel dx="875" dy="468" grid="1" gridSize="10" guides="1" tooltips="1" connect="1" arrows="1" fold="1" page="1" pageScale="1" pageWidth="827" pageHeight="1169" math="0" shadow="0">
      <root>
        <mxCell id="0" />
        <mxCell id="1" parent="0" />
        <mxCell id="wvuUdX-tQCa_6GEuhU4Q-1" value="" style="rounded=0;whiteSpace=wrap;html=1;fillColor=#dae8fc;strokeColor=#6c8ebf;" vertex="1" parent="1">
          <mxGeometry x="180" y="15" width="500" height="570" as="geometry" />
        </mxCell>
        <mxCell id="wvuUdX-tQCa_6GEuhU4Q-2" value="Quai Antique" style="text;strokeColor=none;fillColor=none;html=1;fontSize=24;fontStyle=1;verticalAlign=middle;align=center;" vertex="1" parent="1">
          <mxGeometry x="540" y="30" width="100" height="40" as="geometry" />
        </mxCell>
        <mxCell id="wvuUdX-tQCa_6GEuhU4Q-36" style="rounded=0;orthogonalLoop=1;jettySize=auto;html=1;endArrow=none;endFill=0;" edge="1" parent="1" source="wvuUdX-tQCa_6GEuhU4Q-7" target="wvuUdX-tQCa_6GEuhU4Q-10">
          <mxGeometry relative="1" as="geometry" />
        </mxCell>
        <mxCell id="wvuUdX-tQCa_6GEuhU4Q-7" value="Gérer les ingrédients" style="ellipse;whiteSpace=wrap;html=1;fontSize=14;" vertex="1" parent="1">
          <mxGeometry x="200" y="20" width="100" height="60" as="geometry" />
        </mxCell>
        <mxCell id="wvuUdX-tQCa_6GEuhU4Q-10" value="Administrateur" style="shape=umlActor;verticalLabelPosition=bottom;verticalAlign=top;html=1;outlineConnect=0;" vertex="1" parent="1">
          <mxGeometry x="120" y="150" width="30" height="80" as="geometry" />
        </mxCell>
        <mxCell id="wvuUdX-tQCa_6GEuhU4Q-11" value="Clients" style="shape=umlActor;verticalLabelPosition=bottom;verticalAlign=top;html=1;outlineConnect=0;" vertex="1" parent="1">
          <mxGeometry x="120" y="410" width="30" height="80" as="geometry" />
        </mxCell>
        <mxCell id="wvuUdX-tQCa_6GEuhU4Q-25" style="rounded=0;orthogonalLoop=1;jettySize=auto;html=1;entryX=1;entryY=0.5;entryDx=0;entryDy=0;endArrow=none;endFill=0;" edge="1" parent="1" source="wvuUdX-tQCa_6GEuhU4Q-12" target="wvuUdX-tQCa_6GEuhU4Q-24">
          <mxGeometry relative="1" as="geometry">
            <mxPoint x="710" y="320" as="sourcePoint" />
          </mxGeometry>
        </mxCell>
        <mxCell id="wvuUdX-tQCa_6GEuhU4Q-12" value="Visiteurs" style="shape=umlActor;verticalLabelPosition=bottom;verticalAlign=top;html=1;outlineConnect=0;" vertex="1" parent="1">
          <mxGeometry x="720" y="490" width="30" height="80" as="geometry" />
        </mxCell>
        <mxCell id="wvuUdX-tQCa_6GEuhU4Q-13" value="Inscription" style="ellipse;whiteSpace=wrap;html=1;fontSize=14;" vertex="1" parent="1">
          <mxGeometry x="530" y="430" width="100" height="50" as="geometry" />
        </mxCell>
        <mxCell id="wvuUdX-tQCa_6GEuhU4Q-15" value="" style="endArrow=none;html=1;rounded=0;entryX=1;entryY=0.5;entryDx=0;entryDy=0;" edge="1" parent="1" source="wvuUdX-tQCa_6GEuhU4Q-12" target="wvuUdX-tQCa_6GEuhU4Q-13">
          <mxGeometry width="50" height="50" relative="1" as="geometry">
            <mxPoint x="710" y="320" as="sourcePoint" />
            <mxPoint x="550" y="365" as="targetPoint" />
          </mxGeometry>
        </mxCell>
        <mxCell id="wvuUdX-tQCa_6GEuhU4Q-18" value="" style="rounded=0;orthogonalLoop=1;jettySize=auto;html=1;endArrow=none;endFill=0;" edge="1" parent="1" source="wvuUdX-tQCa_6GEuhU4Q-16" target="wvuUdX-tQCa_6GEuhU4Q-12">
          <mxGeometry relative="1" as="geometry">
            <mxPoint x="210" y="375" as="targetPoint" />
          </mxGeometry>
        </mxCell>
        <mxCell id="wvuUdX-tQCa_6GEuhU4Q-19" style="rounded=0;orthogonalLoop=1;jettySize=auto;html=1;endArrow=none;endFill=0;" edge="1" parent="1" source="wvuUdX-tQCa_6GEuhU4Q-16" target="wvuUdX-tQCa_6GEuhU4Q-11">
          <mxGeometry relative="1" as="geometry" />
        </mxCell>
        <mxCell id="wvuUdX-tQCa_6GEuhU4Q-16" value="Réserver une table" style="ellipse;whiteSpace=wrap;html=1;fontSize=14;" vertex="1" parent="1">
          <mxGeometry x="250" y="480" width="100" height="60" as="geometry" />
        </mxCell>
        <mxCell id="wvuUdX-tQCa_6GEuhU4Q-21" style="rounded=0;orthogonalLoop=1;jettySize=auto;html=1;entryX=0.5;entryY=1;entryDx=0;entryDy=0;dashed=1;endArrow=none;endFill=0;" edge="1" parent="1" source="wvuUdX-tQCa_6GEuhU4Q-22" target="wvuUdX-tQCa_6GEuhU4Q-16">
          <mxGeometry relative="1" as="geometry" />
        </mxCell>
        <mxCell id="wvuUdX-tQCa_6GEuhU4Q-20" value="Connexion" style="ellipse;whiteSpace=wrap;html=1;fontSize=14;" vertex="1" parent="1">
          <mxGeometry x="520" y="525" width="100" height="60" as="geometry" />
        </mxCell>
        <mxCell id="wvuUdX-tQCa_6GEuhU4Q-23" value="" style="rounded=0;orthogonalLoop=1;jettySize=auto;html=1;entryX=1;entryY=0.5;entryDx=0;entryDy=0;dashed=1;endArrow=none;endFill=0;startArrow=classic;startFill=1;" edge="1" parent="1" source="wvuUdX-tQCa_6GEuhU4Q-20" target="wvuUdX-tQCa_6GEuhU4Q-22">
          <mxGeometry relative="1" as="geometry">
            <mxPoint x="350" y="480" as="sourcePoint" />
            <mxPoint x="350" y="405" as="targetPoint" />
          </mxGeometry>
        </mxCell>
        <mxCell id="wvuUdX-tQCa_6GEuhU4Q-22" value="Include" style="text;html=1;align=center;verticalAlign=middle;whiteSpace=wrap;rounded=0;" vertex="1" parent="1">
          <mxGeometry x="400" y="540" width="60" height="30" as="geometry" />
        </mxCell>
        <mxCell id="wvuUdX-tQCa_6GEuhU4Q-27" style="rounded=0;orthogonalLoop=1;jettySize=auto;html=1;exitX=0;exitY=0.5;exitDx=0;exitDy=0;endArrow=none;endFill=0;" edge="1" parent="1" source="wvuUdX-tQCa_6GEuhU4Q-24" target="wvuUdX-tQCa_6GEuhU4Q-11">
          <mxGeometry relative="1" as="geometry">
            <mxPoint x="150" y="450" as="targetPoint" />
          </mxGeometry>
        </mxCell>
        <mxCell id="wvuUdX-tQCa_6GEuhU4Q-24" value="Afficher la carte" style="ellipse;whiteSpace=wrap;html=1;fontSize=14;" vertex="1" parent="1">
          <mxGeometry x="460" y="260" width="100" height="60" as="geometry" />
        </mxCell>
        <mxCell id="wvuUdX-tQCa_6GEuhU4Q-26" style="rounded=0;orthogonalLoop=1;jettySize=auto;html=1;exitX=0;exitY=0.5;exitDx=0;exitDy=0;endArrow=none;endFill=0;" edge="1" parent="1" source="wvuUdX-tQCa_6GEuhU4Q-24" target="wvuUdX-tQCa_6GEuhU4Q-10">
          <mxGeometry relative="1" as="geometry" />
        </mxCell>
        <mxCell id="wvuUdX-tQCa_6GEuhU4Q-29" style="rounded=0;orthogonalLoop=1;jettySize=auto;html=1;exitX=0;exitY=0.5;exitDx=0;exitDy=0;endArrow=none;endFill=0;" edge="1" parent="1" source="wvuUdX-tQCa_6GEuhU4Q-28" target="wvuUdX-tQCa_6GEuhU4Q-11">
          <mxGeometry relative="1" as="geometry" />
        </mxCell>
        <mxCell id="wvuUdX-tQCa_6GEuhU4Q-28" value="Gérer ses réservations" style="ellipse;whiteSpace=wrap;html=1;fontSize=14;" vertex="1" parent="1">
          <mxGeometry x="350" y="410" width="100" height="60" as="geometry" />
        </mxCell>
        <mxCell id="wvuUdX-tQCa_6GEuhU4Q-31" style="rounded=0;orthogonalLoop=1;jettySize=auto;html=1;endArrow=none;endFill=0;" edge="1" parent="1" source="wvuUdX-tQCa_6GEuhU4Q-30" target="wvuUdX-tQCa_6GEuhU4Q-11">
          <mxGeometry relative="1" as="geometry" />
        </mxCell>
        <mxCell id="wvuUdX-tQCa_6GEuhU4Q-30" value="Modifier ses infos perso" style="ellipse;whiteSpace=wrap;html=1;fontSize=14;" vertex="1" parent="1">
          <mxGeometry x="364" y="330" width="100" height="60" as="geometry" />
        </mxCell>
        <mxCell id="wvuUdX-tQCa_6GEuhU4Q-34" style="rounded=0;orthogonalLoop=1;jettySize=auto;html=1;endArrow=none;endFill=0;" edge="1" parent="1" source="wvuUdX-tQCa_6GEuhU4Q-32" target="wvuUdX-tQCa_6GEuhU4Q-10">
          <mxGeometry relative="1" as="geometry" />
        </mxCell>
        <mxCell id="wvuUdX-tQCa_6GEuhU4Q-32" value="Gérer les menus" style="ellipse;whiteSpace=wrap;html=1;fontSize=14;" vertex="1" parent="1">
          <mxGeometry x="200" y="270" width="100" height="60" as="geometry" />
        </mxCell>
        <mxCell id="wvuUdX-tQCa_6GEuhU4Q-35" style="rounded=0;orthogonalLoop=1;jettySize=auto;html=1;endArrow=none;endFill=0;" edge="1" parent="1" source="wvuUdX-tQCa_6GEuhU4Q-33" target="wvuUdX-tQCa_6GEuhU4Q-10">
          <mxGeometry relative="1" as="geometry" />
        </mxCell>
        <mxCell id="wvuUdX-tQCa_6GEuhU4Q-43" value="" style="edgeStyle=orthogonalEdgeStyle;rounded=0;orthogonalLoop=1;jettySize=auto;html=1;dashed=1;" edge="1" parent="1" source="wvuUdX-tQCa_6GEuhU4Q-44" target="wvuUdX-tQCa_6GEuhU4Q-42">
          <mxGeometry relative="1" as="geometry" />
        </mxCell>
        <mxCell id="wvuUdX-tQCa_6GEuhU4Q-33" value="Gérer les plats" style="ellipse;whiteSpace=wrap;html=1;fontSize=14;" vertex="1" parent="1">
          <mxGeometry x="330" y="120" width="100" height="60" as="geometry" />
        </mxCell>
        <mxCell id="wvuUdX-tQCa_6GEuhU4Q-40" style="rounded=0;orthogonalLoop=1;jettySize=auto;html=1;endArrow=none;endFill=0;" edge="1" parent="1" source="wvuUdX-tQCa_6GEuhU4Q-38" target="wvuUdX-tQCa_6GEuhU4Q-10">
          <mxGeometry relative="1" as="geometry" />
        </mxCell>
        <mxCell id="wvuUdX-tQCa_6GEuhU4Q-38" value="Gérer les réservations" style="ellipse;whiteSpace=wrap;html=1;fontSize=14;" vertex="1" parent="1">
          <mxGeometry x="250" y="170" width="100" height="60" as="geometry" />
        </mxCell>
        <mxCell id="wvuUdX-tQCa_6GEuhU4Q-41" style="rounded=0;orthogonalLoop=1;jettySize=auto;html=1;endArrow=none;endFill=0;" edge="1" parent="1" source="wvuUdX-tQCa_6GEuhU4Q-39" target="wvuUdX-tQCa_6GEuhU4Q-10">
          <mxGeometry relative="1" as="geometry" />
        </mxCell>
        <mxCell id="wvuUdX-tQCa_6GEuhU4Q-39" value="Gérer les images" style="ellipse;whiteSpace=wrap;html=1;fontSize=14;" vertex="1" parent="1">
          <mxGeometry x="300" y="60" width="100" height="60" as="geometry" />
        </mxCell>
        <mxCell id="wvuUdX-tQCa_6GEuhU4Q-42" value="Gérer les catégories" style="ellipse;whiteSpace=wrap;html=1;fontSize=14;" vertex="1" parent="1">
          <mxGeometry x="570" y="120" width="100" height="60" as="geometry" />
        </mxCell>
        <mxCell id="wvuUdX-tQCa_6GEuhU4Q-45" value="" style="edgeStyle=orthogonalEdgeStyle;rounded=0;orthogonalLoop=1;jettySize=auto;html=1;dashed=1;endArrow=none;endFill=0;" edge="1" parent="1" source="wvuUdX-tQCa_6GEuhU4Q-33" target="wvuUdX-tQCa_6GEuhU4Q-44">
          <mxGeometry relative="1" as="geometry">
            <mxPoint x="430" y="150" as="sourcePoint" />
            <mxPoint x="540" y="150" as="targetPoint" />
          </mxGeometry>
        </mxCell>
        <mxCell id="wvuUdX-tQCa_6GEuhU4Q-44" value="extend" style="text;html=1;align=center;verticalAlign=middle;whiteSpace=wrap;rounded=0;" vertex="1" parent="1">
          <mxGeometry x="464" y="140" width="60" height="20" as="geometry" />
        </mxCell>
      </root>
    </mxGraphModel>
  </diagram>
</mxfile>
